<svg width="46" height="55" viewBox="0 0 46 55" fill="none" xmlns="http://www.w3.org/2000/svg">
<g clip-path="url(#clip0_2_94)">
<path d="M43.625 0.625015H37.0625C36.5652 0.625015 36.0883 0.815974 35.7367 1.15588C35.385 1.49579 35.1875 1.95681 35.1875 2.43752V7.87502H29.5625V2.43752C29.5625 1.95681 29.365 1.49579 29.0133 1.15588C28.6617 0.815974 28.1848 0.625015 27.6875 0.625015H18.3125C17.8152 0.625015 17.3383 0.815974 16.9867 1.15588C16.635 1.49579 16.4375 1.95681 16.4375 2.43752V7.87502H10.8242V2.43752C10.8242 1.95681 10.6267 1.49579 10.275 1.15588C9.92341 0.815974 9.4465 0.625015 8.94922 0.625015H2.375C1.87772 0.625015 1.40081 0.815974 1.04917 1.15588C0.697544 1.49579 0.5 1.95681 0.5 2.43752L0.5 22.375L8 26C8 31.4749 7.81953 36.7617 6.45195 44.125H39.548C38.1805 36.7617 38 31.4058 38 26L45.5 22.375V2.43752C45.5 1.95681 45.3025 1.49579 44.9508 1.15588C44.5992 0.815974 44.1223 0.625015 43.625 0.625015ZM26.75 33.25H19.25V26C19.25 25.0386 19.6451 24.1166 20.3484 23.4368C21.0516 22.7569 22.0054 22.375 23 22.375C23.9946 22.375 24.9484 22.7569 25.6516 23.4368C26.3549 24.1166 26.75 25.0386 26.75 26V33.25ZM43.625 47.75H2.375C1.87772 47.75 1.40081 47.941 1.04917 48.2809C0.697544 48.6208 0.5 49.0818 0.5 49.5625L0.5 53.1875C0.5 53.6682 0.697544 54.1292 1.04917 54.4691C1.40081 54.8091 1.87772 55 2.375 55H43.625C44.1223 55 44.5992 54.8091 44.9508 54.4691C45.3025 54.1292 45.5 53.6682 45.5 53.1875V49.5625C45.5 49.0818 45.3025 48.6208 44.9508 48.2809C44.5992 47.941 44.1223 47.75 43.625 47.75Z" fill="white"/>
</g>
<defs>
<clipPath id="clip0_2_94">
<rect width="46" height="55" fill="white"/>
</clipPath>
</defs>
</svg>
