<svg width="99" height="90" viewBox="0 0 99 90" fill="none" xmlns="http://www.w3.org/2000/svg">
<g filter="url(#filter0_i_2_114)">
<path d="M86.0497 78.4806C86.695 78.4806 87.3055 78.2028 87.7119 77.7235C88.1183 77.2444 88.2768 76.6159 88.1435 76.0127L86.7958 69.9182C87.5633 69.2087 88.0458 68.2181 88.0458 67.1167C88.0458 65.9572 87.5054 64.9287 86.6666 64.2142V43.0502L81.2644 46.2449V64.2142C80.4256 64.9287 79.885 65.9572 79.885 67.1167C79.885 68.2182 80.3677 69.2089 81.1352 69.9182L79.7873 76.0127C79.654 76.616 79.8127 77.2445 80.2189 77.7235C80.6253 78.2026 81.2358 78.4806 81.8811 78.4806H86.0497ZM87.8808 30.7002L52.7365 9.91025C51.7073 9.30439 50.547 9.00024 49.3867 9.00024C48.2264 9.00024 47.0653 9.30413 46.0423 9.91025L10.8976 30.7002C9.95912 31.2551 9.38916 32.2352 9.38916 33.29C9.38916 34.345 9.95912 35.3254 10.8976 35.8812L46.0421 56.6714C47.0652 57.2779 48.2263 57.5814 49.3865 57.5814C50.5468 57.5814 51.7073 57.2775 52.7363 56.6714L87.8808 35.8812C88.8192 35.3257 89.3892 34.345 89.3892 33.29C89.3892 32.2352 88.8192 31.2548 87.8808 30.7002ZM49.3865 62.7435C47.1973 62.7435 45.0607 62.1625 43.1983 61.0609L22.6982 48.9329V69.8162C22.6982 75.997 34.6526 81.0002 49.3865 81.0002C64.1257 81.0002 76.0791 75.9968 76.0791 69.8162V48.9329L55.5799 61.0609C53.7175 62.1625 51.5757 62.7435 49.3865 62.7435Z" fill="white"/>
</g>
<defs>
<filter id="filter0_i_2_114" x="0.38916" y="0.000244141" width="100" height="93" filterUnits="userSpaceOnUse" color-interpolation-filters="sRGB">
<feFlood flood-opacity="0" result="BackgroundImageFix"/>
<feBlend mode="normal" in="SourceGraphic" in2="BackgroundImageFix" result="shape"/>
<feColorMatrix in="SourceAlpha" type="matrix" values="0 0 0 0 0 0 0 0 0 0 0 0 0 0 0 0 0 0 127 0" result="hardAlpha"/>
<feOffset dx="2" dy="4"/>
<feGaussianBlur stdDeviation="1.5"/>
<feComposite in2="hardAlpha" operator="arithmetic" k2="-1" k3="1"/>
<feColorMatrix type="matrix" values="0 0 0 0 0 0 0 0 0 0 0 0 0 0 0 0 0 0 0.35 0"/>
<feBlend mode="normal" in2="shape" result="effect1_innerShadow_2_114"/>
</filter>
</defs>
</svg>
