<svg width="100" height="100" viewBox="0 0 100 100" fill="none" xmlns="http://www.w3.org/2000/svg">
<g clip-path="url(#clip0_2_35)">
<path d="M20.8333 8.33337V16.6667H16.6667C12.0833 16.6667 8.33334 20.4167 8.33334 25V70.8334C8.33334 75.4167 12.0833 79.1667 16.6667 79.1667H45C52.5 71.6667 45 79.1667 53.3333 70.8334H16.6667V33.3334H66.6667V57.9167C73.3333 51.25 67.5 57.0834 75 49.5834V25C75 20.4167 71.25 16.6667 66.6667 16.6667H62.5V8.33337H54.1667V16.6667H29.1667V8.33337H20.8333ZM41.6667 38.3334L38.3333 46.6667L29.1667 47.5L35.8333 53.3334L33.75 62.0834L41.25 57.5L48.75 62.0834L46.6667 53.3334L53.3333 47.5L44.1667 46.6667L41.6667 38.3334ZM85.4167 50C85 50 84.1667 50.4167 83.75 50.8334L80.4167 54.1667L88.75 62.5L92.0833 59.1667C92.9167 58.3334 92.9167 56.6667 92.0833 56.25L86.6667 50.8334C86.6667 50 85.8333 50 85.4167 50ZM78.3333 56.25L51.25 83.3334V91.6667H59.5833L86.6667 64.5834L78.3333 56.25Z" fill="white"/>
</g>
<defs>
<clipPath id="clip0_2_35">
<rect width="100" height="100" fill="white"/>
</clipPath>
</defs>
</svg>
