<svg width="73" height="73" viewBox="0 0 73 73" fill="none" xmlns="http://www.w3.org/2000/svg">
<g clip-path="url(#clip0_2_99)" filter="url(#filter0_i_2_99)">
<path d="M71.4892 33.7287L39.0925 1.3321C38.7579 0.994709 38.3598 0.726918 37.9211 0.54417C37.4825 0.361422 37.012 0.267334 36.5368 0.267334C36.0616 0.267334 35.5911 0.361422 35.1525 0.54417C34.7138 0.726918 34.3157 0.994709 33.9811 1.3321L1.58442 33.7287C0.906599 34.4065 0.525803 35.3258 0.525803 36.2844C0.525803 37.243 0.906599 38.1623 1.58442 38.8402C2.26225 39.518 3.18157 39.8988 4.14016 39.8988C5.09874 39.8988 6.01807 39.518 6.69589 38.8402L7.73979 37.7603V66.1613C7.80541 67.8451 8.53538 69.4343 9.76993 70.5811C11.0045 71.728 12.6431 72.3391 14.3271 72.2807H23.9381C24.8928 72.2807 25.8084 71.9014 26.4834 71.2264C27.1585 70.5513 27.5377 69.6357 27.5377 68.681V51.0429C27.5377 50.0882 27.917 49.1726 28.592 48.4976C29.2671 47.8225 30.1827 47.4433 31.1374 47.4433H41.9362C42.8909 47.4433 43.8065 47.8225 44.4816 48.4976C45.1566 49.1726 45.5359 50.0882 45.5359 51.0429V68.681C45.5359 69.6357 45.9151 70.5513 46.5902 71.2264C47.2652 71.9014 48.1808 72.2807 49.1355 72.2807H58.7465C60.4305 72.3391 62.0691 71.728 63.3037 70.5811C64.5382 69.4343 65.2682 67.8451 65.3338 66.1613V37.7603L66.3777 38.8402C66.7123 39.1776 67.1105 39.4453 67.5491 39.6281C67.9878 39.8108 68.4583 39.9049 68.9334 39.9049C69.4086 39.9049 69.8791 39.8108 70.3178 39.6281C70.7564 39.4453 71.1545 39.1776 71.4892 38.8402C71.8266 38.5055 72.0944 38.1074 72.2771 37.6688C72.4599 37.2301 72.5539 36.7596 72.5539 36.2844C72.5539 35.8092 72.4599 35.3387 72.2771 34.9001C72.0944 34.4615 71.8266 34.0633 71.4892 33.7287Z" fill="#00BBFF"/>
</g>
<defs>
<filter id="filter0_i_2_99" x="0.252441" y="0.000244141" width="74.5684" height="75.5684" filterUnits="userSpaceOnUse" color-interpolation-filters="sRGB">
<feFlood flood-opacity="0" result="BackgroundImageFix"/>
<feBlend mode="normal" in="SourceGraphic" in2="BackgroundImageFix" result="shape"/>
<feColorMatrix in="SourceAlpha" type="matrix" values="0 0 0 0 0 0 0 0 0 0 0 0 0 0 0 0 0 0 127 0" result="hardAlpha"/>
<feOffset dx="2" dy="4"/>
<feGaussianBlur stdDeviation="1.5"/>
<feComposite in2="hardAlpha" operator="arithmetic" k2="-1" k3="1"/>
<feColorMatrix type="matrix" values="0 0 0 0 0 0 0 0 0 0 0 0 0 0 0 0 0 0 0.35 0"/>
<feBlend mode="normal" in2="shape" result="effect1_innerShadow_2_99"/>
</filter>
<clipPath id="clip0_2_99">
<rect width="72.5684" height="72.5684" fill="white" transform="translate(0.252441 0.000244141)"/>
</clipPath>
</defs>
</svg>
