<svg width="100" height="100" viewBox="0 0 100 100" fill="none" xmlns="http://www.w3.org/2000/svg">
<rect width="100" height="100" rx="20" fill="white"/>
<g clip-path="url(#clip0_18_2)">
<path d="M50 90C72.0914 90 90 72.0914 90 50C90 27.9086 72.0914 10 50 10C27.9086 10 10 27.9086 10 50C10 72.0914 27.9086 90 50 90Z" fill="#8247E5"/>
<path d="M63.2398 41.4419C62.2804 40.8837 61.0331 40.8837 59.9778 41.4419L52.4944 45.7209L47.4095 48.5116L39.9262 52.7907C38.9667 53.3488 37.7195 53.3488 36.6641 52.7907L30.7158 49.4419C29.7564 48.8837 29.0848 47.8605 29.0848 46.7441V40.1395C29.0848 39.0233 29.6605 38 30.7158 37.4419L36.5682 34.186C37.5276 33.6279 38.7748 33.6279 39.8302 34.186L45.6826 37.4419C46.642 38 47.3136 39.0233 47.3136 40.1395V44.4186L52.3984 41.5348V37.2558C52.3984 36.1395 51.8228 35.1163 50.7675 34.5581L39.9262 28.4186C38.9667 27.8605 37.7195 27.8605 36.6641 28.4186L25.6309 34.5581C24.5755 35.1163 23.9999 36.1395 23.9999 37.2558V49.6279C23.9999 50.7441 24.5755 51.7674 25.6309 52.3256L36.6641 58.4651C37.6236 59.0233 38.8708 59.0233 39.9262 58.4651L47.4095 54.2791L52.4944 51.3953L59.9778 47.2093C60.9372 46.6512 62.1845 46.6512 63.2398 47.2093L69.0922 50.4651C70.0516 51.0233 70.7232 52.0465 70.7232 53.1628V59.7674C70.7232 60.8838 70.1475 61.907 69.0922 62.4651L63.2398 65.814C62.2804 66.3721 61.0331 66.3721 59.9778 65.814L54.1254 62.5581C53.166 62 52.4944 60.9767 52.4944 59.8605V55.5814L47.4095 58.4651V62.7441C47.4095 63.8605 47.9852 64.8838 49.0405 65.4419L60.0737 71.5814C61.0331 72.1395 62.2804 72.1395 63.3357 71.5814L74.3689 65.4419C75.3284 64.8838 75.9999 63.8605 75.9999 62.7441V50.3721C75.9999 49.2558 75.4243 48.2326 74.3689 47.6744L63.2398 41.4419Z" fill="white"/>
</g>
<defs>
<clipPath id="clip0_18_2">
<rect width="80" height="80" fill="white" transform="translate(10 10)"/>
</clipPath>
</defs>
</svg>
