<svg width="57" height="57" viewBox="0 0 57 57" fill="none" xmlns="http://www.w3.org/2000/svg">
<g clip-path="url(#clip0_2_75)">
<path d="M28.5 57C44.2401 57 57 44.2401 57 28.5C57 12.7599 44.2401 0 28.5 0C12.7599 0 0 12.7599 0 28.5C0 44.2401 12.7599 57 28.5 57Z" fill="black"/>
<path d="M57 28.5C57 44.2401 44.2401 57 28.5 57C12.7599 57 0 44.2401 0 28.5C0 12.7599 12.7599 0 28.5 0C44.2401 0 57 12.7599 57 28.5ZM5.7 28.5C5.7 41.0921 15.9079 51.3 28.5 51.3C41.0921 51.3 51.3 41.0921 51.3 28.5C51.3 15.9079 41.0921 5.7 28.5 5.7C15.9079 5.7 5.7 15.9079 5.7 28.5Z" fill="white"/>
<path d="M18.938 22.6003L23.5662 16.6497L43.961 42.6899H35.1113L18.938 22.6003Z" fill="white"/>
<path d="M29.6185 21.3796L34.1959 27.1268L43.9101 14.3101H35.0096L29.6185 21.3796Z" fill="white"/>
<path d="M27.0755 35.8238L22.549 30.0766L12.9873 42.6899H21.837L27.0755 35.8238Z" fill="white"/>
<path d="M18.938 22.6003L23.5662 16.6497L43.961 42.6899H35.1113L18.938 22.6003Z" fill="white"/>
<path d="M29.6185 21.3796L34.1959 27.1268L43.9101 14.3101H35.0096L29.6185 21.3796Z" fill="white"/>
<path d="M27.0755 35.8238L22.549 30.0766L12.9873 42.6899H21.837L27.0755 35.8238Z" fill="white"/>
<path d="M18.9399 22.6076L12.9873 14.3101H21.7358L23.5696 16.6551L18.9399 22.6076Z" fill="white"/>
<path d="M17.4066 20.4731L22.5475 15.3323L23.5696 16.625L18.3687 21.8259L17.4066 20.4731Z" fill="black"/>
<mask id="mask0_2_75" style="mask-type:alpha" maskUnits="userSpaceOnUse" x="12" y="14" width="32" height="29">
<path d="M18.938 22.6002L23.5662 16.6496L43.961 42.6899H35.1113L18.938 22.6002Z" fill="black"/>
<path d="M29.6185 21.3796L34.1959 27.1268L43.9101 14.3101H35.0096L29.6185 21.3796Z" fill="black"/>
<path d="M27.0755 35.8238L22.549 30.0766L12.9873 42.6899H21.837L27.0755 35.8238Z" fill="black"/>
</mask>
<g mask="url(#mask0_2_75)">
<path d="M39.8837 7.01358L50.1605 19.8949L36.3145 30.9415L26.0376 18.0602L39.8837 7.01358Z" fill="#FFC700"/>
</g>
<path d="M29.6184 21.3796L35.0095 14.3101H43.91L29.6184 21.3796Z" fill="#C99D00"/>
</g>
<defs>
<clipPath id="clip0_2_75">
<rect width="57" height="57" fill="white"/>
</clipPath>
</defs>
</svg>
