<svg width="73" height="73" viewBox="0 0 73 73" fill="none" xmlns="http://www.w3.org/2000/svg">
<g clip-path="url(#clip0_2_103)" filter="url(#filter0_i_2_103)">
<path d="M55.7356 20.7396C55.489 20.7048 55.2424 20.7048 54.9959 20.7396C49.5365 20.5655 45.2042 16.1443 45.2042 10.7135C45.2042 5.17825 49.7478 0.652588 55.3833 0.652588C60.9836 0.652588 65.5624 5.14344 65.5624 10.7135C65.5272 16.1443 61.1949 20.5655 55.7356 20.7396Z" fill="white"/>
<path d="M66.2985 44.6022C62.3536 47.2132 56.8238 48.1879 51.7166 47.5265C53.0551 44.6718 53.7595 41.5039 53.7947 38.1619C53.7947 34.6806 53.0198 31.3734 51.5405 28.4839C56.7534 27.7876 62.2832 28.7624 66.2632 31.3734C71.8283 34.9939 71.8283 40.9469 66.2985 44.6022Z" fill="white"/>
<path d="M16.6786 20.7396C16.9251 20.7048 17.1717 20.7048 17.4182 20.7396C22.8776 20.5655 27.2099 16.1443 27.2099 10.7135C27.2099 5.14344 22.6663 0.652588 17.0308 0.652588C11.4305 0.652588 6.8869 5.14344 6.8869 10.7135C6.8869 16.1443 11.2192 20.5655 16.6786 20.7396Z" fill="white"/>
<path d="M17.0689 38.4264C17.0689 41.8033 17.8086 45.0061 19.147 47.8955C14.1807 48.4177 9.00313 47.3733 5.19918 44.9016C-0.365871 41.2463 -0.365871 35.2933 5.19918 31.6379C8.96791 29.1314 14.2864 28.1218 19.2879 28.6788C17.8438 31.6031 17.0689 34.9103 17.0689 38.4264Z" fill="white"/>
<path d="M36.686 48.938C36.4042 48.9032 36.0872 48.9032 35.7702 48.938C29.2894 48.7291 24.1117 43.4724 24.1117 36.9972C24.1469 30.3828 29.5359 25.0216 36.2633 25.0216C42.9554 25.0216 48.3796 30.3828 48.3796 36.9972C48.3444 43.4724 43.202 48.7291 36.686 48.938Z" fill="white"/>
<path d="M25.239 56.1462C19.9205 59.6623 19.9205 65.4412 25.239 68.9225C31.2972 72.9259 41.2298 72.9259 47.2879 68.9225C52.6064 65.4064 52.6064 59.6274 47.2879 56.1462C41.265 52.1427 31.3324 52.1427 25.239 56.1462Z" fill="white"/>
</g>
<defs>
<filter id="filter0_i_2_103" x="0.38916" y="0.000244141" width="73.7621" height="75.5684" filterUnits="userSpaceOnUse" color-interpolation-filters="sRGB">
<feFlood flood-opacity="0" result="BackgroundImageFix"/>
<feBlend mode="normal" in="SourceGraphic" in2="BackgroundImageFix" result="shape"/>
<feColorMatrix in="SourceAlpha" type="matrix" values="0 0 0 0 0 0 0 0 0 0 0 0 0 0 0 0 0 0 127 0" result="hardAlpha"/>
<feOffset dx="2" dy="4"/>
<feGaussianBlur stdDeviation="1.5"/>
<feComposite in2="hardAlpha" operator="arithmetic" k2="-1" k3="1"/>
<feColorMatrix type="matrix" values="0 0 0 0 0 0 0 0 0 0 0 0 0 0 0 0 0 0 0.35 0"/>
<feBlend mode="normal" in2="shape" result="effect1_innerShadow_2_103"/>
</filter>
<clipPath id="clip0_2_103">
<rect width="71.7621" height="72.5684" fill="white" transform="translate(0.38916 0.000244141)"/>
</clipPath>
</defs>
</svg>
