<svg width="74" height="73" viewBox="0 0 74 73" fill="none" xmlns="http://www.w3.org/2000/svg">
<g clip-path="url(#clip0_2_101)" filter="url(#filter0_i_2_101)">
<path d="M52.1872 0.28833H22.0223C8.91969 0.28833 1.10851 8.09951 1.10851 21.2021V51.367C1.10851 64.4696 8.91969 72.2808 22.0223 72.2808H52.1872C65.2898 72.2808 73.101 64.4696 73.101 51.367V21.2021C73.101 8.09951 65.2898 0.28833 52.1872 0.28833ZM29.7975 46.7235L21.6984 54.8226C21.1584 55.3626 20.4745 55.6145 19.7906 55.6145C19.1066 55.6145 18.3867 55.3626 17.8827 54.8226L15.183 52.1229C14.1031 51.079 14.1031 49.3512 15.183 48.3073C16.2269 47.2634 17.9187 47.2634 18.9986 48.3073L19.7906 49.0992L25.9819 42.9079C27.0258 41.864 28.7176 41.864 29.7975 42.9079C30.8414 43.9518 30.8414 45.6796 29.7975 46.7235ZM29.7975 21.5261L21.6984 29.6253C21.1584 30.1652 20.4745 30.4172 19.7906 30.4172C19.1066 30.4172 18.3867 30.1652 17.8827 29.6253L15.183 26.9255C14.1031 25.8817 14.1031 24.1538 15.183 23.1099C16.2269 22.0661 17.9187 22.0661 18.9986 23.1099L19.7906 23.9019L25.9819 17.7105C27.0258 16.6666 28.7176 16.6666 29.7975 17.7105C30.8414 18.7544 30.8414 20.4822 29.7975 21.5261ZM57.1186 52.9148H38.2206C36.7448 52.9148 35.5209 51.691 35.5209 50.2151C35.5209 48.7393 36.7448 47.5154 38.2206 47.5154H57.1186C58.6305 47.5154 59.8184 48.7393 59.8184 50.2151C59.8184 51.691 58.6305 52.9148 57.1186 52.9148ZM57.1186 27.7175H38.2206C36.7448 27.7175 35.5209 26.4936 35.5209 25.0177C35.5209 23.5419 36.7448 22.318 38.2206 22.318H57.1186C58.6305 22.318 59.8184 23.5419 59.8184 25.0177C59.8184 26.4936 58.6305 27.7175 57.1186 27.7175Z" fill="white"/>
</g>
<defs>
<filter id="filter0_i_2_101" x="0.820801" y="0.000244141" width="74.5684" height="75.5684" filterUnits="userSpaceOnUse" color-interpolation-filters="sRGB">
<feFlood flood-opacity="0" result="BackgroundImageFix"/>
<feBlend mode="normal" in="SourceGraphic" in2="BackgroundImageFix" result="shape"/>
<feColorMatrix in="SourceAlpha" type="matrix" values="0 0 0 0 0 0 0 0 0 0 0 0 0 0 0 0 0 0 127 0" result="hardAlpha"/>
<feOffset dx="2" dy="4"/>
<feGaussianBlur stdDeviation="1.5"/>
<feComposite in2="hardAlpha" operator="arithmetic" k2="-1" k3="1"/>
<feColorMatrix type="matrix" values="0 0 0 0 0 0 0 0 0 0 0 0 0 0 0 0 0 0 0.35 0"/>
<feBlend mode="normal" in2="shape" result="effect1_innerShadow_2_101"/>
</filter>
<clipPath id="clip0_2_101">
<rect width="72.5684" height="72.5684" fill="white" transform="translate(0.820801 0.000244141)"/>
</clipPath>
</defs>
</svg>
