<svg width="130" height="77" viewBox="0 0 130 77" fill="none" xmlns="http://www.w3.org/2000/svg">
<g clip-path="url(#clip0_2_53)" filter="url(#filter0_i_2_53)">
<path d="M129.797 19.2166L129.797 19.2148C129.797 18.2783 129.073 17.505 128.124 17.401C120.126 16.5269 113.724 10.468 112.497 2.72745C112.251 1.17296 110.897 0.0211966 109.293 0.0213704L20.9115 0.0213725C19.3243 0.0213729 17.9533 1.14621 17.7136 2.68492C17.4596 4.3147 16.9768 5.87022 16.2974 7.3194C13.7003 12.861 8.23684 16.8427 1.76974 17.4377C0.818068 17.5252 0.0834143 18.2941 0.0834107 19.232L0.083407 19.233C0.0834078 19.9829 0.561872 20.6416 1.27257 20.9167C2.47501 21.3818 3.32596 22.5317 3.32596 23.8768C3.32596 25.2218 2.47502 26.3717 1.27257 26.8369C0.561518 27.112 0.0832383 27.7708 0.0834133 28.5205L0.0834075 28.7754C0.0834082 29.5253 0.561873 30.1839 1.27257 30.459C2.47502 30.9242 3.32596 32.0741 3.32597 33.4191C3.32596 34.7642 2.47502 35.9141 1.27257 36.3792C0.561525 36.6544 0.0832335 37.3132 0.0834085 38.0629L0.083414 38.3178C0.0834153 39.0676 0.561868 39.7263 1.27257 40.0014C2.47501 40.4666 3.32596 41.6165 3.32596 42.9615C3.32596 44.3066 2.47501 45.4564 1.27257 45.9216C0.561519 46.1967 0.0832342 46.8555 0.0834085 47.6053V47.8601C0.0834099 48.61 0.561869 49.2687 1.27257 49.5438C2.47502 50.0089 3.32597 51.1588 3.32596 52.5039C3.32597 53.8489 2.47502 54.9988 1.27257 55.464C0.561521 55.7391 0.0832342 56.3979 0.0834099 57.1476C0.0834099 58.0841 0.816317 58.8551 1.76747 58.941C9.99662 59.6832 16.6188 65.8103 17.8688 73.6621C18.1159 75.2128 19.4712 76.3586 21.0715 76.3588L109.133 76.3576C110.736 76.3576 112.089 75.2084 112.337 73.6558C113.573 65.908 120.042 59.8439 128.123 58.9764C129.072 58.8743 129.797 58.0997 129.797 57.1627C129.797 56.4036 129.311 55.7393 128.593 55.4573C127.399 54.9883 126.555 53.8424 126.555 52.5035C126.555 51.1643 127.398 50.0184 128.593 49.5498C129.312 49.2678 129.798 48.6037 129.797 47.8443L129.797 47.6214C129.797 46.8622 129.311 46.1979 128.593 45.9159C127.399 45.447 126.555 44.3011 126.555 42.9622C126.555 41.623 127.398 40.477 128.593 40.0084C129.312 39.7265 129.798 39.0623 129.797 38.303L129.797 38.08C129.797 37.3209 129.311 36.6566 128.593 36.3746C127.399 35.9057 126.555 34.7597 126.555 33.4209C126.555 32.0816 127.398 30.9357 128.593 30.4671C129.312 30.1851 129.798 29.521 129.797 28.7617L129.797 28.5387C129.797 27.7795 129.311 27.1153 128.593 26.8333C127.399 26.3643 126.555 25.2184 126.555 23.8795C126.555 22.5403 127.398 21.3944 128.593 20.9258C129.311 20.6402 129.797 19.9759 129.797 19.2166Z" fill="#003734"/>
<path d="M42.4723 0.0212528L20.9111 0.0212594C19.3239 0.0212599 17.9525 1.14574 17.7131 2.6848C17.488 4.12952 17.0822 5.51592 16.5199 6.8217L57.4509 76.3559L87.4072 76.3559L42.4723 0.0212528Z" fill="#99B6C7" fill-opacity="0.22"/>
<path d="M42.4723 0.0215693L87.4064 76.356L109.132 76.356C110.734 76.356 112.088 75.2068 112.336 73.6542C112.554 72.2871 112.938 70.9739 113.463 69.7309L72.4286 0.021572L42.4723 0.0215693Z" fill="#6692AB" fill-opacity="0.22"/>
<path d="M102.212 9.56363L28.023 9.56362C26.752 9.56328 25.6106 10.2976 25.0725 11.427C22.7939 16.2104 19.1279 20.2365 14.5867 23.0038C13.6345 23.584 13.0545 24.6037 13.0543 25.7034L13.0543 50.6235C13.0543 51.7292 13.6408 52.7538 14.6016 53.3322C19.2045 56.1021 22.9194 60.1477 25.2229 64.9589C25.762 66.0846 26.9019 66.8152 28.1699 66.8151H102.062C103.329 66.8151 104.466 66.0865 105.008 64.9639C107.272 60.2719 110.884 56.2962 115.348 53.5277C116.277 52.9519 116.826 51.9379 116.826 50.8604L116.827 25.4637C116.827 24.3924 116.283 23.3837 115.363 22.8059C110.952 20.0351 107.383 16.0684 105.144 11.3926C104.61 10.2768 103.469 9.56363 102.212 9.56363Z" fill="#003734"/>
<path d="M48.0899 9.56335L28.0236 9.56335C26.7529 9.56335 25.6111 10.2973 25.073 11.4267C24.2513 13.1517 23.2466 14.7762 22.0883 16.2808L51.8345 66.8143L81.7908 66.8143L48.0899 9.56335Z" fill="#99B6C7" fill-opacity="0.22"/>
<path d="M48.0892 9.56282L81.7899 66.8136H102.063C103.329 66.8136 104.466 66.085 105.008 64.9624C105.809 63.3026 106.782 61.7347 107.898 60.2761L78.046 9.56265L48.0892 9.56282Z" fill="#6692AB" fill-opacity="0.22"/>
<path d="M36.5926 16.5397L37.3075 18.8435L39.74 18.8435C40.5787 18.8435 40.939 19.9039 40.2725 20.4111L38.2674 21.9366L39.0101 24.3301C39.2621 25.1426 38.3184 25.7985 37.6396 25.2822L35.7548 23.8483L33.8699 25.2822C33.1913 25.7987 32.2473 25.1428 32.4994 24.3301L33.2421 21.9366L31.237 20.4111C30.5706 19.9039 30.9305 18.8432 31.7695 18.8435L34.202 18.8435L34.9169 16.5397C35.1712 15.7191 36.3376 15.7191 36.5926 16.5397Z" fill="white"/>
<path d="M56.0494 16.5397L56.7643 18.8435L59.1968 18.8435C60.0355 18.8435 60.3958 19.9039 59.7293 20.4111L57.7242 21.9366L58.4669 24.3301C58.7189 25.1426 57.7753 25.7985 57.0964 25.2822L55.2116 23.8483L53.3268 25.2822C52.6481 25.7987 51.7041 25.1428 51.9563 24.3301L52.699 21.9366L50.6938 20.4111C50.0274 19.9039 50.3873 18.8432 51.2263 18.8435L53.6589 18.8435L54.3738 16.5397C54.628 15.7191 55.7948 15.7191 56.0494 16.5397Z" fill="white"/>
<path d="M75.5062 16.5398L76.2211 18.8437L78.6536 18.8437C79.4923 18.8437 79.8525 19.904 79.1861 20.4112L77.181 21.9367L77.9237 24.3303C78.1757 25.1428 77.232 25.7986 76.5532 25.2824L74.6683 23.8485L72.7835 25.2824C72.1048 25.7988 71.1608 25.1429 71.413 24.3303L72.1557 21.9367L70.1506 20.4112C69.4841 19.904 69.844 18.8433 70.6831 18.8437L73.1156 18.8437L73.8305 16.5398C74.0849 15.7187 75.2514 15.7187 75.5062 16.5398Z" fill="white"/>
<path d="M94.963 16.5397L95.6779 18.8435L98.1104 18.8435C98.9491 18.8435 99.3094 19.9039 98.6429 20.411L96.6378 21.9365L97.3805 24.3301C97.6325 25.1426 96.6889 25.7985 96.01 25.2822L94.1252 23.8483L92.2404 25.2822C91.5617 25.7987 90.6177 25.1428 90.8699 24.3301L91.6126 21.9365L89.6074 20.411C88.941 19.9039 89.3009 18.8432 90.1399 18.8435L92.5725 18.8435L93.2874 16.5397C93.5416 15.7191 94.7082 15.7189 94.963 16.5397Z" fill="white"/>
<path d="M36.5918 51.5265L37.3067 53.8304L39.7392 53.8304C40.5779 53.8304 40.9381 54.8907 40.2717 55.3979L38.2666 56.9234L39.0093 59.317C39.2613 60.1294 38.3174 60.7855 37.6388 60.2691L35.7539 58.8352L33.8691 60.2691C33.1904 60.7855 32.2464 60.1296 32.4986 59.317L33.2413 56.9234L31.2362 55.3979C30.5697 54.8907 30.9296 53.83 31.7687 53.8304L34.2012 53.8304L34.9161 51.5265C35.1702 50.7054 36.3368 50.7056 36.5918 51.5265Z" fill="white"/>
<path d="M56.0494 51.5261L56.7643 53.83L59.1968 53.83C60.0355 53.83 60.3958 54.8903 59.7293 55.3975L57.7242 56.923L58.4669 59.3166C58.7189 60.129 57.7751 60.7851 57.0964 60.2687L55.2116 58.8348L53.3268 60.2687C52.6481 60.7851 51.7041 60.1292 51.9563 59.3166L52.699 56.923L50.6938 55.3975C50.0274 54.8903 50.3873 53.8296 51.2263 53.83L53.6589 53.83L54.3738 51.5261C54.6282 50.7054 55.795 50.7054 56.0494 51.5261Z" fill="white"/>
<path d="M75.5062 51.5262L76.2211 53.8301L78.6536 53.8301C79.4923 53.8301 79.8525 54.8904 79.1861 55.3976L77.181 56.9231L77.9237 59.3167C78.1757 60.1291 77.232 60.785 76.5532 60.2688L74.6683 58.8349L72.7832 60.2691C72.1045 60.7856 71.1605 60.1297 71.4127 59.317L72.1554 56.9234L70.1502 55.3979C69.4838 54.8907 69.8437 53.8301 70.6827 53.8304L73.1153 53.8304L73.8302 51.5265C74.0846 50.7055 75.2514 50.7055 75.5062 51.5262Z" fill="white"/>
<path d="M94.9631 51.5264L95.678 53.8302L98.1105 53.8302C98.9492 53.8302 99.3095 54.8906 98.643 55.3978L96.6379 56.9233L97.3806 59.3168C97.6326 60.1293 96.6889 60.7852 96.0101 60.2689L94.1252 58.835L92.2401 60.2693C91.5614 60.7857 90.6174 60.1298 90.8696 59.3172L91.6123 56.9236L89.6071 55.3981C88.9407 54.8909 89.3006 53.8302 90.1396 53.8306L92.5722 53.8306L93.2871 51.5267C93.5419 50.7056 94.7083 50.7056 94.9631 51.5264Z" fill="white"/>
<path d="M104.2 64.429L27.6517 64.4286C25.1146 58.8618 20.8676 54.1961 15.4866 51.0686L15.4863 25.2599C20.7983 22.1334 24.9932 17.4845 27.5031 11.9489L102.728 11.9489C105.191 17.3339 109.263 21.9003 114.394 25.027L114.394 51.2998C110.707 53.5211 107.507 56.5188 105.082 60.0365C104.329 61.1281 104.621 62.6096 105.734 63.3486C106.847 64.0864 108.359 63.8002 109.111 62.7088C111.378 59.4204 114.451 56.6726 117.997 54.7622C118.774 54.3432 119.258 53.5419 119.258 52.6716L119.258 23.6637C119.258 22.7979 118.781 22.0003 118.009 21.5796C112.79 18.7294 108.746 14.1589 106.623 8.71159C106.263 7.78744 105.359 7.17751 104.351 7.17802L25.8746 7.17786C24.8635 7.17786 23.9581 7.79138 23.6 8.71896C21.4443 14.3052 17.2915 18.9399 11.906 21.7693C11.1156 22.1844 10.6221 22.9926 10.6223 23.8719C10.6223 23.873 10.6223 23.8737 10.6223 23.8747L10.6223 23.876L10.6223 52.4661C10.6223 53.3505 11.1214 54.1628 11.9179 54.5753C17.3718 57.4021 21.5746 62.0505 23.7532 67.6633C23.8779 67.9846 24.0683 68.2678 24.306 68.5009C24.753 68.9393 25.3673 69.1998 26.0262 69.1998L104.2 69.2001C105.544 69.2001 106.633 68.1321 106.632 66.8148C106.632 65.497 105.543 64.429 104.2 64.429Z" fill="white"/>
<path d="M39.8285 47.0216C38.2134 47.0216 36.8308 46.5916 35.6805 45.7318C34.5303 44.8643 33.833 43.7334 33.5888 42.3391H37.1223C37.2877 42.889 37.6147 43.3267 38.1031 43.652C38.5995 43.9774 39.1825 44.14 39.8521 44.14C41.0181 44.14 41.932 43.6249 42.5938 42.5947C43.2635 41.5645 43.5786 40.1779 43.5392 38.4351H43.4329H43.3502H43.3265C42.9405 39.2252 42.3654 39.8371 41.6011 40.2709C40.8448 40.6969 39.9703 40.9099 38.9776 40.9099C37.3547 40.9099 36.0114 40.3871 34.9478 39.3414C33.8921 38.2879 33.3643 36.9595 33.3643 35.356C33.3643 33.6132 33.9749 32.184 35.196 31.0686C36.4172 29.9532 37.981 29.3954 39.8876 29.3954C41.1166 29.3954 42.2117 29.6549 43.1729 30.1739C44.1419 30.6852 44.9219 31.4327 45.5128 32.4164C46.4661 33.8727 46.9427 35.7588 46.9427 38.0749C46.9427 40.8635 46.3124 43.0517 45.0519 44.6396C43.7913 46.2276 42.0502 47.0216 39.8285 47.0216ZM37.7013 37.3661C38.2843 37.9238 39.021 38.2027 39.9112 38.2027C40.8015 38.2027 41.5381 37.9277 42.1211 37.3777C42.712 36.82 43.0074 36.119 43.0074 35.2747C43.0074 34.4226 42.712 33.71 42.1211 33.1368C41.5302 32.5558 40.7976 32.2654 39.923 32.2654C39.0485 32.2654 38.3119 32.552 37.7132 33.1252C37.1223 33.6984 36.8268 34.4033 36.8268 35.2398C36.8268 36.0996 37.1183 36.8084 37.7013 37.3661ZM56.3968 47.0216C54.7817 47.0216 53.3991 46.5916 52.2488 45.7318C51.0986 44.8643 50.4013 43.7334 50.1571 42.3391H53.6906C53.856 42.889 54.183 43.3267 54.6714 43.652C55.1678 43.9774 55.7508 44.14 56.4204 44.14C57.5864 44.14 58.5003 43.6249 59.1621 42.5947C59.8318 41.5645 60.1469 40.1779 60.1075 38.4351H60.0012H59.9184H59.8948C59.5088 39.2252 58.9336 39.8371 58.1694 40.2709C57.4131 40.6969 56.5386 40.9099 55.5459 40.9099C53.923 40.9099 52.5797 40.3871 51.5161 39.3414C50.4604 38.2879 49.9326 36.9595 49.9326 35.356C49.9326 33.6132 50.5431 32.184 51.7643 31.0686C52.9854 29.9532 54.5493 29.3954 56.4559 29.3954C57.6849 29.3954 58.78 29.6549 59.7412 30.1739C60.7102 30.6852 61.4902 31.4327 62.0811 32.4164C63.0343 33.8727 63.511 35.7588 63.511 38.0749C63.511 40.8635 62.8807 43.0517 61.6202 44.6396C60.3596 46.2276 58.6185 47.0216 56.3968 47.0216ZM54.2696 37.3661C54.8526 37.9238 55.5893 38.2027 56.4795 38.2027C57.3698 38.2027 58.1064 37.9277 58.6894 37.3777C59.2803 36.82 59.5757 36.119 59.5757 35.2747C59.5757 34.4226 59.2803 33.71 58.6894 33.1368C58.0985 32.5558 57.3658 32.2654 56.4913 32.2654C55.6168 32.2654 54.8802 32.552 54.2814 33.1252C53.6906 33.6984 53.3951 34.4033 53.3951 35.2398C53.3951 36.0996 53.6866 36.8084 54.2696 37.3661ZM72.9651 47.0216C71.35 47.0216 69.9673 46.5916 68.8171 45.7318C67.6668 44.8643 66.9696 43.7334 66.7254 42.3391H70.2588C70.4243 42.889 70.7512 43.3267 71.2397 43.652C71.736 43.9774 72.319 44.14 72.9887 44.14C74.1547 44.14 75.0686 43.6249 75.7304 42.5947C76.4001 41.5645 76.7152 40.1779 76.6758 38.4351H76.5694H76.4867H76.4631C76.077 39.2252 75.5019 39.8371 74.7377 40.2709C73.9814 40.6969 73.1069 40.9099 72.1142 40.9099C70.4913 40.9099 69.148 40.3871 68.0844 39.3414C67.0287 38.2879 66.5008 36.9595 66.5008 35.356C66.5008 33.6132 67.1114 32.184 68.3326 31.0686C69.5537 29.9532 71.1176 29.3954 73.0242 29.3954C74.2532 29.3954 75.3483 29.6549 76.3095 30.1739C77.2785 30.6852 78.0585 31.4327 78.6493 32.4164C79.6026 33.8727 80.0793 35.7588 80.0793 38.0749C80.0793 40.8635 79.449 43.0517 78.1884 44.6396C76.9279 46.2276 75.1868 47.0216 72.9651 47.0216ZM70.8379 37.3661C71.4209 37.9238 72.1575 38.2027 73.0478 38.2027C73.9381 38.2027 74.6747 37.9277 75.2577 37.3777C75.8486 36.82 76.144 36.119 76.144 35.2747C76.144 34.4226 75.8486 33.71 75.2577 33.1368C74.6668 32.5558 73.9341 32.2654 73.0596 32.2654C72.1851 32.2654 71.4485 32.552 70.8497 33.1252C70.2588 33.6984 69.9634 34.4033 69.9634 35.2398C69.9634 36.0996 70.2549 36.8084 70.8379 37.3661ZM89.5333 47.0216C87.9183 47.0216 86.5356 46.5916 85.3854 45.7318C84.2351 44.8643 83.5379 43.7334 83.2937 42.3391H86.8271C86.9926 42.889 87.3195 43.3267 87.808 43.652C88.3043 43.9774 88.8873 44.14 89.557 44.14C90.723 44.14 91.6369 43.6249 92.2987 42.5947C92.9683 41.5645 93.2835 40.1779 93.2441 38.4351H93.1377H93.055H93.0314C92.6453 39.2252 92.0702 39.8371 91.306 40.2709C90.5497 40.6969 89.6752 40.9099 88.6825 40.9099C87.0595 40.9099 85.7163 40.3871 84.6527 39.3414C83.597 38.2879 83.0691 36.9595 83.0691 35.356C83.0691 33.6132 83.6797 32.184 84.9008 31.0686C86.122 29.9532 87.6859 29.3954 89.5924 29.3954C90.8215 29.3954 91.9166 29.6549 92.8777 30.1739C93.8468 30.6852 94.6267 31.4327 95.2176 32.4164C96.1709 33.8727 96.6475 35.7588 96.6475 38.0749C96.6475 40.8635 96.0173 43.0517 94.7567 44.6396C93.4962 46.2276 91.7551 47.0216 89.5333 47.0216ZM87.4062 37.3661C87.9892 37.9238 88.7258 38.2027 89.6161 38.2027C90.5063 38.2027 91.243 37.9277 91.826 37.3777C92.4168 36.82 92.7123 36.119 92.7123 35.2747C92.7123 34.4226 92.4168 33.71 91.826 33.1368C91.2351 32.5558 90.5024 32.2654 89.6279 32.2654C88.7534 32.2654 88.0168 32.552 87.418 33.1252C86.8271 33.6984 86.5317 34.4033 86.5317 35.2398C86.5317 36.0996 86.8232 36.8084 87.4062 37.3661Z" fill="white"/>
</g>
<defs>
<filter id="filter0_i_2_53" x="0" y="0" width="132" height="79" filterUnits="userSpaceOnUse" color-interpolation-filters="sRGB">
<feFlood flood-opacity="0" result="BackgroundImageFix"/>
<feBlend mode="normal" in="SourceGraphic" in2="BackgroundImageFix" result="shape"/>
<feColorMatrix in="SourceAlpha" type="matrix" values="0 0 0 0 0 0 0 0 0 0 0 0 0 0 0 0 0 0 127 0" result="hardAlpha"/>
<feOffset dx="2" dy="2"/>
<feGaussianBlur stdDeviation="1"/>
<feComposite in2="hardAlpha" operator="arithmetic" k2="-1" k3="1"/>
<feColorMatrix type="matrix" values="0 0 0 0 0 0 0 0 0 0.117647 0 0 0 0 0.117647 0 0 0 1 0"/>
<feBlend mode="normal" in2="shape" result="effect1_innerShadow_2_53"/>
</filter>
<clipPath id="clip0_2_53">
<rect width="130" height="77" fill="white"/>
</clipPath>
</defs>
</svg>
