<svg width="73" height="73" viewBox="0 0 73 73" fill="none" xmlns="http://www.w3.org/2000/svg">
<g clip-path="url(#clip0_2_110)" filter="url(#filter0_i_2_110)">
<path fill-rule="evenodd" clip-rule="evenodd" d="M66.7569 28.5716C66.5601 28.559 66.3456 28.5591 66.1235 28.5592H66.068H57.351C50.1663 28.5592 44.0184 34.2592 44.0184 41.6923C44.0184 49.1254 50.1663 54.8255 57.351 54.8255H66.068H66.1235C66.3456 54.8255 66.5601 54.8255 66.7569 54.8129C69.6753 54.6272 72.2562 52.3257 72.4732 49.1106C72.4877 48.8997 72.4873 48.6726 72.4873 48.4621V48.4047V34.9798V34.9225C72.4873 34.712 72.4877 34.4848 72.4732 34.2739C72.2562 31.0592 69.6753 28.7573 66.7569 28.5716ZM56.5785 45.1943C58.4279 45.1943 59.9276 43.6265 59.9276 41.6923C59.9276 39.7581 58.4279 38.1902 56.5785 38.1902C54.7286 38.1902 53.2289 39.7581 53.2289 41.6923C53.2289 43.6265 54.7286 45.1943 56.5785 45.1943Z" fill="white"/>
<path fill-rule="evenodd" clip-rule="evenodd" d="M66.1206 60.0787C66.6387 60.0653 67.0309 60.5488 66.8903 61.0517C66.1927 63.5468 65.0856 65.6732 63.3089 67.4638C60.7085 70.0848 57.4113 71.2478 53.3371 71.7998C49.3786 72.3362 44.3206 72.3362 37.9344 72.3362H30.5928C24.2067 72.3362 19.1486 72.3362 15.19 71.7998C11.116 71.2478 7.81855 70.0848 5.21811 67.4638C2.61763 64.8429 1.46358 61.5196 0.915851 57.4137C0.383621 53.4239 0.383694 48.3262 0.38373 41.8899V41.4948C0.383658 35.0585 0.383621 29.9608 0.915851 25.9711C1.46358 21.8651 2.61763 18.5417 5.21811 15.9208C7.81855 13.2999 11.116 12.1368 15.19 11.5848C19.1486 11.0484 24.2067 11.0484 30.5928 11.0485H37.9344C44.3206 11.0484 49.3786 11.0484 53.3371 11.5848C57.4113 12.1368 60.7085 13.2999 63.3089 15.9208C65.0856 17.7114 66.1927 19.838 66.8903 22.3331C67.0309 22.8359 66.6387 23.3196 66.1206 23.306L57.3507 23.3061C47.4935 23.3061 38.8057 31.1541 38.8057 41.6923C38.8057 52.2306 47.4935 60.0787 57.3507 60.0787H66.1206ZM13.4144 25.0571C11.9751 25.0571 10.8083 26.2331 10.8083 27.6837C10.8083 29.1345 11.9751 30.3105 13.4144 30.3105H27.3139C28.7532 30.3105 29.9201 29.1345 29.9201 27.6837C29.9201 26.2331 28.7532 25.0571 27.3139 25.0571H13.4144Z" fill="white"/>
<path d="M21.21 7.53115L28.2718 2.32844C32.0641 -0.465599 37.2022 -0.465599 40.9944 2.32844L48.0934 7.55848C45.1252 7.44304 41.8106 7.44315 38.1766 7.44322H30.3513C27.0307 7.44315 23.9766 7.44308 21.21 7.53115Z" fill="white"/>
</g>
<defs>
<filter id="filter0_i_2_110" x="0.151367" y="0.000244141" width="74.5684" height="75.5684" filterUnits="userSpaceOnUse" color-interpolation-filters="sRGB">
<feFlood flood-opacity="0" result="BackgroundImageFix"/>
<feBlend mode="normal" in="SourceGraphic" in2="BackgroundImageFix" result="shape"/>
<feColorMatrix in="SourceAlpha" type="matrix" values="0 0 0 0 0 0 0 0 0 0 0 0 0 0 0 0 0 0 127 0" result="hardAlpha"/>
<feOffset dx="2" dy="4"/>
<feGaussianBlur stdDeviation="1.5"/>
<feComposite in2="hardAlpha" operator="arithmetic" k2="-1" k3="1"/>
<feColorMatrix type="matrix" values="0 0 0 0 0 0 0 0 0 0 0 0 0 0 0 0 0 0 0.35 0"/>
<feBlend mode="normal" in2="shape" result="effect1_innerShadow_2_110"/>
</filter>
<clipPath id="clip0_2_110">
<rect width="72.5684" height="72.5684" fill="white" transform="translate(0.151367 0.000244141)"/>
</clipPath>
</defs>
</svg>
